<svg width="30" height="25" viewBox="0 0 30 25" fill="none" xmlns="http://www.w3.org/2000/svg">
<path d="M12.1572 21.2714V18.2047C12.1572 17.4246 12.7931 16.7908 13.581 16.7856H16.4671C17.2587 16.7856 17.9005 17.4209 17.9005 18.2047V21.2809C17.9003 21.9432 18.4343 22.4845 19.103 22.5H21.0271C22.9451 22.5 24.5 20.9607 24.5 19.0618V10.3378C24.4898 9.59083 24.1355 8.88935 23.538 8.43303L16.9577 3.1853C15.8049 2.27157 14.1662 2.27157 13.0134 3.1853L6.46203 8.44256C5.86226 8.89702 5.50739 9.59967 5.5 10.3474V19.0618C5.5 20.9607 7.05488 22.5 8.97291 22.5H10.897C11.5823 22.5 12.138 21.9499 12.138 21.2714" fill="#9775FA"/>
<path d="M12.1572 21.2714V18.2047C12.1572 17.4246 12.7931 16.7908 13.581 16.7856H16.4671C17.2587 16.7856 17.9005 17.4209 17.9005 18.2047V21.2809C17.9003 21.9432 18.4343 22.4845 19.103 22.5H21.0271C22.9451 22.5 24.5 20.9607 24.5 19.0618V10.3378C24.4898 9.59083 24.1355 8.88935 23.538 8.43303L16.9577 3.1853C15.8049 2.27157 14.1662 2.27157 13.0134 3.1853L6.46203 8.44256C5.86226 8.89702 5.50739 9.59967 5.5 10.3474V19.0618C5.5 20.9607 7.05488 22.5 8.97291 22.5H10.897C11.5823 22.5 12.138 21.9499 12.138 21.2714" stroke="#9775FA" stroke-width="1.5" stroke-linecap="round" stroke-linejoin="round"/>
</svg>
