<svg width="20" height="21" viewBox="0 0 20 21" fill="none" xmlns="http://www.w3.org/2000/svg">
<path fill-rule="evenodd" clip-rule="evenodd" d="M5.87393 20.222H14.2218C17.2881 20.222 19.6405 19.1144 18.9724 14.6568L18.1943 8.61559C17.7824 6.39133 16.3637 5.54007 15.1188 5.54007H4.94029C3.67713 5.54007 2.34075 6.45541 1.86477 8.61559L1.08674 14.6568C0.519236 18.611 2.80757 20.222 5.87393 20.222Z" fill="#9775FA"/>
<path d="M5.73663 5.32041C5.73663 2.93434 7.67092 1.00004 10.057 1.00004C11.206 0.995169 12.3096 1.4482 13.1238 2.25896C13.938 3.06971 14.3957 4.1714 14.3957 5.32041" fill="#9775FA"/>
<path d="M7.09132 9.82382H7.13709Z" fill="#9775FA"/>
<path d="M12.922 9.82382H12.9678Z" fill="#9775FA"/>
<path d="M5.73663 5.32041C5.73663 2.93434 7.67092 1.00004 10.057 1.00004C11.206 0.995169 12.3096 1.4482 13.1238 2.25896C13.938 3.06971 14.3957 4.1714 14.3957 5.32041M7.09132 9.82382H7.13709M12.922 9.82382H12.9678M5.87393 20.222H14.2218C17.2881 20.222 19.6405 19.1144 18.9724 14.6568L18.1943 8.61559C17.7824 6.39133 16.3637 5.54007 15.1188 5.54007H4.94029C3.67713 5.54007 2.34075 6.45541 1.86477 8.61559L1.08674 14.6568C0.519236 18.611 2.80757 20.222 5.87393 20.222Z" stroke="#FEFEFE" stroke-width="1.5" stroke-linecap="round" stroke-linejoin="round"/>
</svg>
