<svg width="23" height="28" viewBox="0 0 23 28" fill="none" xmlns="http://www.w3.org/2000/svg">
<path d="M21.5 16.607H17.2696C15.7163 16.6061 14.4573 15.3798 14.4563 13.8659C14.4563 12.3518 15.7163 11.1256 17.2696 11.1247H21.5" fill="#9775FA"/>
<path d="M17.7482 13.8031H17.4224Z" fill="#9775FA"/>
<path fill-rule="evenodd" clip-rule="evenodd" d="M6.98376 5H16.0161C19.0446 5 21.4999 7.39306 21.4999 10.3449V17.655C21.4999 20.6069 19.0446 23 16.0161 23H6.98376C3.95522 23 1.5 20.6069 1.5 17.655V10.3449C1.5 7.39306 3.95522 5 6.98376 5Z" fill="#9775FA"/>
<path d="M6.23968 9.6223H11.8816Z" fill="#9775FA"/>
<path d="M21.5 16.607H17.2696C15.7163 16.6061 14.4573 15.3798 14.4563 13.8659C14.4563 12.3518 15.7163 11.1256 17.2696 11.1247H21.5M17.7482 13.8031H17.4224M6.23968 9.6223H11.8816M6.98376 5H16.0161C19.0446 5 21.4999 7.39306 21.4999 10.3449V17.655C21.4999 20.6069 19.0446 23 16.0161 23H6.98376C3.95522 23 1.5 20.6069 1.5 17.655V10.3449C1.5 7.39306 3.95522 5 6.98376 5Z" stroke="#FEFEFE" stroke-width="1.5" stroke-linecap="round" stroke-linejoin="round"/>
</svg>
